<svg xmlns="http://www.w3.org/2000/svg" viewBox="0 0 48 48" id="ship"><path d="M42.9082,29.5811a1.0024,1.0024,0,0,0-.6406-.545L36,27.2953V17a1,1,0,0,0-1-1H33.6182l-1.7237-3.4473A1,1,0,0,0,31,12H30V3a1,1,0,0,0-1-1H19a1,1,0,0,0-1,1v9H17a1,1,0,0,0-.8945.5527L14.3818,16H13a1,1,0,0,0-1,1V27.2953L5.7324,29.0361a1,1,0,0,0-.6386,1.3868l7,15A.9988.9988,0,0,0,13,46H35a.999.999,0,0,0,.9063-.5771l7-15A1.0023,1.0023,0,0,0,42.9082,29.5811ZM34,26.74l-9-2.5V18h9ZM28,4V6H20V4ZM20,8h8v4H20Zm-2.3818,6H30.3818l1,2H16.6182ZM14,18h9v6.24l-9,2.5ZM34.3633,44H25V39a1,1,0,0,0-2,0v5H13.6367l-6.23-13.3516L13.253,29.024c.0048-.0012.01.0008.0146-.0006L24,26.0381l10.7324,2.9853c.0081.0023.0164.0013.0245.0033l5.8369,1.6217Z"></path></svg>