<svg xmlns="http://www.w3.org/2000/svg" viewBox="0 0 32 32" id="ship"><g data-name="boat"><path fill="#231f20" d="M28.56 27.32l-2-1.35a4.45 4.45 0 0 0-4.89 0L20 27l-1.51-1a4.45 4.45 0 0 0-4.89 0L12 27l-1.52-1a4.45 4.45 0 0 0-4.89 0L3.46 27.32a1 1 0 0 0-.3 1.38 1 1 0 0 0 .84.46A1.06 1.06 0 0 0 4.54 29l2.14-1.38a2.44 2.44 0 0 1 2.69 0l2 1.35a.93.93 0 0 0 .48.15l.14 0a1.1 1.1 0 0 0 .55-.16l2.13-1.38a2.45 2.45 0 0 1 2.7 0l2 1.35a1 1 0 0 0 .48.15l.15 0a1.09 1.09 0 0 0 .54-.16l2.14-1.38a2.44 2.44 0 0 1 2.69 0l2 1.35a1 1 0 0 0 1.12-1.67zM6.47 23.71a1 1 0 0 0 1 .75H24.56a1 1 0 0 0 1-.78c.47-2.13.95-3.83 1.41-5.47s1-3.4 1.44-5.59a1 1 0 0 0-1-1.21 20.81 20.81 0 0 1-5-.8V5.75a2.91 2.91 0 0 0-2.9-2.91H12.47a2.91 2.91 0 0 0-2.9 2.91v4.84a20.87 20.87 0 0 1-5 .82 1 1 0 0 0-.79.38 1 1 0 0 0-.18.87zm5.1-18a.9.9 0 0 1 .9-.91h7.06a.9.9 0 0 1 .9.91v4.38l-.1 0-.4-.09L19 9.83l-.44-.08-.92-.13-.41 0c-.43 0-.87-.07-1.31-.07h0c-.42 0-.84 0-1.25.06l-.4 0c-.3 0-.6.08-.9.13l-.42.07-1 .2-.29.06-.07 0zm-2 6.9h0l.12 0 .81-.2.31-.08a25.56 25.56 0 0 1 4.12-.78l.07 3.6a1 1 0 0 0 1 1h0a1 1 0 0 0 1-1l-.07-3.56h.24a30 30 0 0 1 4 .8l1.24.31h0a25.08 25.08 0 0 0 3.74.68c-.38 1.61-.77 3-1.14 4.31s-.84 3-1.27 4.8H8.21L5.86 13.34A24.72 24.72 0 0 0 9.57 12.65z"></path><path fill="#231f20" d="M9.23 17.09a1 1 0 0 0 1-1v-.86a1 1 0 0 0-2 0v.86A1 1 0 0 0 9.23 17.09zM22.55 17.09a1 1 0 0 0 1-1v-.86a1 1 0 0 0-2 0v.86A1 1 0 0 0 22.55 17.09z"></path></g></svg>